<?xml version="1.0" encoding="UTF-8"?>
<!-- Generator: Adobe Illustrator 17.1.0, SVG Export Plug-In . SVG Version: 6.00 Build 0)  -->
<!DOCTYPE svg PUBLIC "-//W3C//DTD SVG 1.1//EN" "http://www.w3.org/Graphics/SVG/1.1/DTD/svg11.dtd">
<svg version="1.1" id="Layer_2" xmlns="http://www.w3.org/2000/svg" xmlns:xlink="http://www.w3.org/1999/xlink" x="0px" y="0px" viewBox="0 0 141.7 141.7" enable-background="new 0 0 141.7 141.7" xml:space="preserve">
<g>
	<path fill="#FFFFFF" d="M105,34.8v21.5c0.9,0.4,2.1,1,3,1.4l0-0.3c0-3.3,1-2.9,3.2-3.9c0.6-0.2,0.7-1.3,1.6-1.4   c1.1-0.1,3.5,0.3,4.5,0.8c0.6,0.3,0.7,0.7,1,1.3c0.2,0.6,1.3,1,1.6,1.7c0.5,1.4,0,3.3-1.5,3.8c-0.5,0.2-2.8,0.1-2.8,0.1   c0,0.5,0,1.2,0,1.6c0,0.2,0,0.6,0,0.6s0.5,0.2,0.7,0.2c3.8,1,24.7,7.3,25.2,8.4c0.1,0.3-0.2,0.3-0.2,0.3c-0.5,0.1-13.7-3-16.1-3.4   c-2.8-0.5-5-1-8.6-1.5l0,0.2c0,1.1-0.2,1.1-1.2,1.5l0,0.2c1.2,0.2,5,0.8,5.8,1.4c0.9,0.6,3-0.1,4.5,1.9c0.4,0.5,0.4,2.7,0,3.3   c-0.6,0.9-1.3,0.5-2.1,0.6c-0.5,0.1-0.8,0.6-1.2,0.8c-0.4,0.2-1,0.1-1.5,0.2c-1.1,0-1.5-1-2.3-1.5c-0.4-0.3-0.8-0.1-1.3-0.2   c-0.6-0.2-1.1-0.9-1.6-1.2c-0.3-0.2-1.1-0.1-1.4,0.1c-2,1.2-7.2,0-9.3-1.3l0.1,13c0,0,0,2.2-1.3,4.4c-6.4,11-19.9,17.5-32.6,17.5   H71c-12.7,0-26.2-6.3-32.6-17.3C37,87.4,37,85,37,85l0.1-13c-2,1.3-7.3,2.5-9.3,1.3c-0.3-0.2-1.1-0.2-1.4-0.1c-0.6,0.3-1,1-1.6,1.2   c-0.4,0.1-0.9-0.1-1.3,0.2c-0.8,0.5-1.2,1.6-2.3,1.5c-0.5,0-1.1,0.1-1.5-0.2c-0.4-0.2-0.7-0.7-1.2-0.8c-0.9-0.1-1.5,0.3-2.1-0.6   c-0.4-0.5-0.4-2.7,0-3.3c1.5-2,3.6-1.3,4.5-1.9c0.8-0.6,4.6-1.1,5.8-1.4l0-0.2c-1-0.3-1.2-0.3-1.2-1.5l0-0.2   c-3.6,0.5-5.8,1-8.6,1.5c-2.5,0.5-15.6,3.5-16.1,3.4c0,0-0.3-0.1-0.2-0.3c0.5-1.2,21.4-7.4,25.2-8.4c0.2-0.1,0.7-0.2,0.7-0.2   s0-0.4,0-0.6c0-0.5,0-1.2,0-1.6c0,0-2.3,0.1-2.8-0.1c-1.4-0.6-2-2.5-1.5-3.8c0.3-0.7,1.4-1.2,1.6-1.7c0.2-0.6,0.4-1,1-1.3   c1-0.5,3.4-0.9,4.5-0.8c0.9,0.1,1.1,1.1,1.6,1.4c2.2,1,3.2,0.5,3.2,3.9l0,0.3c0.9-0.4,2.1-1,3-1.4V34.8H105z"/>
</g>
<g>
	<g>
		<path fill="#001F47" d="M72.2,86l1,11.1l1.3-0.1l-1-11.1L72.2,86z M63.4,84.4L59.8,95l3.4,1.2l1.2-3.4l-1.2-0.4l-0.7,2.2l-0.9-0.3    l3.2-9.3L63.4,84.4z M67.1,86.8l-1,8.7c-0.1,0.7,0.4,1.3,1.1,1.3l2.3,0.3l0.2-1.3l-2.3-0.3l0.4-3.6l1.7,0.2l0.2-1.3L68,90.7    l0.4-3.6l2.3,0.3l0.2-1.3l-2.3-0.3C67.8,85.7,67.2,86.2,67.1,86.8z M85.1,80.2l-0.9,0.9l7.8,7.9l0,0l0.9-0.9L85.1,80.2L85.1,80.2z     M78.9,85.8c-0.2-0.5-0.6-0.9-1.2-0.9c-0.1,0-0.2,0-0.4,0.1l-2.2,0.7l3.2,10.6l0,0.1l1.2-0.4l-1.4-4.7l1-0.3    c0.3-0.1,0.6-0.3,0.7-0.6c0.2-0.3,0.2-0.6,0.1-0.9L78.9,85.8z M77.8,90l-1.1-3.5l1-0.3l1.1,3.5L77.8,90z M96.2,81l-3.8-2.4    l-0.9,1.5l1.1,0.7l0.3-0.4l3.1,2l-0.5,0.8L88,78.6l0.5-0.8l1.5,0.9l0.7-1.1l-1.1-0.7c-0.3-0.2-0.6-0.3-0.9-0.3    c-0.6,0-1.2,0.3-1.5,0.8c-0.5,0.8-0.3,1.9,0.6,2.5l6.6,4.2c0.3,0.2,0.6,0.3,0.9,0.3c0.6,0,1.2-0.3,1.5-0.8    C97.3,82.7,97,81.6,96.2,81z M85.6,89.3l1.2,1.9L86,91.8l-2.7-8.5l-0.7-1l-3,1.9l1.9,3l1.1-0.7l-1.2-1.9l0.8-0.5l2.7,8.5l0.7,1    l3-1.9l-1.9-3L85.6,89.3z"/>
	</g>
</g>
<g>
	<path fill="#001F47" d="M42,88.8L42,88.8c6.6,9.8,17.4,14.6,29.1,14.6c11.6,0,22.5-4.8,29-14.6l0,0l0-0.1c1-1.7,1.4-2.8,1.4-6.4   v-9.5h-1.8v9.5c0,3.4-0.4,4.1-1.2,5.5c-6,8.9-16.1,13.8-27.6,13.8s-21.6-4.9-27.6-13.8c-0.8-1.4-1.2-2.2-1.2-5.5v-9.5h-1.8v9.5   C40.6,85.9,41,87.1,42,88.8L42,88.8z"/>
</g>
<g>
	<polygon fill="#001F47" points="40.1,54.9 40.1,37.8 102,37.8 102,54.9 103,55.4 103,36.8 39.2,36.8 39.2,55.4  "/>
</g>
<g>
	<polygon fill="#001F47" points="40.6,38.2 40.6,54.7 42.3,53.9 42.3,40 99.8,40 99.8,53.9 101.6,54.7 101.6,38.2  "/>
</g>
<g>
	<path fill="#001F47" d="M102,72.9v9.5c0,3.7-0.4,4.8-1.5,6.6l0,0.1l0,0.1c-6.6,9.9-17.6,14.8-29.4,14.8c-11.8,0-22.8-4.9-29.4-14.8   l0-0.1l0-0.1c-1-1.8-1.5-2.9-1.5-6.6v-9.5h-1v9.5c0,3.9,0.5,5.2,1.6,7.1l0.1,0.1l0.1,0.1c6.8,10.1,18.1,15.2,30.2,15.2   c12.1,0,23.4-5.1,30.2-15.2l0.1-0.1l0.1-0.1c1.1-1.9,1.6-3.2,1.6-7.1v-9.5H102z"/>
</g>
<g>
	<path fill-rule="evenodd" clip-rule="evenodd" fill="#001F47" d="M71,46.2c2.1,0,4.2,0.4,6.1,1.2c-0.1,0.3-0.3,1.2-0.9,2.3   c-3.4-0.4-7.2-0.1-7.2-0.1L65.9,47C67.5,46.5,69.2,46.2,71,46.2L71,46.2z"/>
</g>
<g>
	<path fill="#DADADA" d="M85.4,70c-1.3-0.3-2.4-0.9-3.7-1.3c-0.4,0.2-0.7,0.4-0.9,0.5c-1.4,1.6-3.1,2.9-5,3.9   c-4.7,2.5-10.4,2.5-15.1,0.4c-1-0.5-2-1-2.9-1.7c2.8,3.8,7.2,6.4,12.2,6.8c0.2,0,0.4,0,0.5,0c0,0,0.1,0,0.1,0   c3.2,0,6.2-0.9,8.8-2.5C82,74.8,84,72.7,85.4,70l0.1,0C85.5,70,85.5,70,85.4,70z"/>
</g>
<g>
	<path fill="#001F47" d="M77,60c0.8,1.8,1.9,3.6,2.6,4.8c0.9-1.4,1.1-2.4,1.9-4.8c0.3-0.9,1.5-2.2,2.6-3.3c-1.7-1.1-3.9-2.1-3.9-2.1   C78.5,57,77,60,77,60z"/>
</g>
<g>
	<path fill="#001F47" d="M60,50.5c-1.5,1.3-2.6,3-3.5,4.8c0.2,0.2,0.4,0.3,0.6,0.5c0.1-0.2,0.3-0.3,0.4-0.5   C58.5,53,59.6,51.1,60,50.5z"/>
</g>
<g>
	<path fill="#001F47" d="M70,60.1c0,0-2-3.2-4.1-5.6c0,0-4.5,2-6.1,2.9c0,0-0.1,0.6-0.1,1.5c1,1.7,1.5,3.5,2.7,6.1   c0.3,0.2,0.5,0.5,0.8,0.7c0.9,0.2,1.9,0.5,3,0.8C66.2,66.5,69,62,70,60.1z"/>
</g>
<g>
	<path fill-rule="evenodd" clip-rule="evenodd" fill="#001F47" d="M69.6,72.2l7-0.2l1.4,3.8c-2.7,1.6-5.9,2.4-5.9,2.4   c-3.4-0.7-5.3-2.2-5.3-2.2L69.6,72.2L69.6,72.2z"/>
</g>
<g>
	<path fill="#001F47" d="M58.1,69.4c-0.6,0.2-1.2,0.5-1.5,0.6c0,0-0.1,0-0.1,0c0.6,1,1.2,2,2,2.8c0.7,0.8,1.5,1.4,2.3,2   c0.2-0.1,0.3-0.3,0.5-0.4C61.3,74.4,59.3,71.5,58.1,69.4z"/>
</g>
<g>
	<path fill-rule="evenodd" clip-rule="evenodd" fill="#DD0741" d="M18.4,71.9c-0.8,0.2-0.5,1.1-0.7,1.7c0,0,0.1,0.1,0.2,0.1   c0.3-0.1,0.8,0,1-0.3c0.1-0.3,0.2-0.5,0.2-0.9C19,72.3,18.7,71.9,18.4,71.9z M97.7,68.5c-0.4,0.1-0.8,0.3-1.3,0.2   c-0.4,0-1.2-0.4-1.3,0.2c-0.1,0.4-0.3,0.7-0.4,1.1c0,0.2,0.2,0.4,0.4,0.5c0.3,0.1,0.6,0.2,0.9,0.2c0.5-0.3,0.4-0.9,0.9-1.2   c0.2,0.1,0.3,0.4,0.5,0.4s0.5-0.2,0.7-0.5c0.1-0.2,0.1-0.4,0-0.6C97.9,68.6,97.9,68.6,97.7,68.5z M112.3,60.1   c0.1,0.2,0.4,0.5,0.2,0.6c-0.4,0.3-2.7-0.1-2.8,0.2c0.1,0.5,1.5,0.8,1.9,1c0.5,0.2,1,0.3,1.5,0.1c0.6-0.3,1-1.1,0.9-1.7   c0-0.3-0.4-1-0.6-1.3c-0.2-0.2-1.6-1.4-1.2-1.5c0.5,0.2,1.2,0,1.5,0.5c0.9,0.3,1.9,0.4,2.9,0.6c0.6,0.1,1.3-0.1,1.7-0.6   c0.2-0.3,0.2-0.8,0-1.1c-0.2-0.4-0.7-0.5-1-0.6c-0.4,0.1,0,0.5-0.3,0.6l-0.8-0.1c-0.5-0.5,0.6-0.5,0.6-0.7c0.1-0.4-0.3-0.8,0-1.2   c0-0.1-0.1-0.2-0.2-0.2c-0.4-0.2-2.9-0.8-3.3-0.7l-0.1,0.1c0.1,0.1,0.5,0.5,0.5,0.6c0.2,0.3-1,0.5-1.2,0.6c-0.9,0.2-3.3,0.5-3,1.9   C109.6,57.6,112,59.3,112.3,60.1z M25.6,58.5c0.9-0.2,1.9-0.3,2.9-0.6c0.3-0.5,1-0.3,1.5-0.5c0.4,0.2-1.1,1.3-1.2,1.5   c-0.2,0.2-0.5,1-0.6,1.3C28,60.9,28.4,61.7,29,62c0.5,0.3,1,0.1,1.5-0.1c0.4-0.2,1.8-0.5,1.9-1c-0.1-0.3-2.3,0.1-2.8-0.2   c-0.2-0.1,0.1-0.5,0.2-0.6c0.3-0.7,2.7-2.5,2.9-3.1c0.4-1.4-2.1-1.7-3-1.9c-0.2,0-1.3-0.3-1.2-0.6c0,0,0.4-0.4,0.5-0.6L29,53.8   c-0.3,0-2.9,0.6-3.3,0.7c-0.1,0-0.2,0.1-0.2,0.2c0.3,0.4-0.1,0.8,0,1.2c0.1,0.3,1.1,0.2,0.6,0.7l-0.8,0.1c-0.4-0.2,0.1-0.5-0.3-0.6   c-0.3,0.1-0.9,0.2-1,0.6c-0.2,0.3-0.2,0.8,0,1.1C24.3,58.4,24.9,58.6,25.6,58.5z M20.5,71.3c-0.1-0.2-1.1,0-1.1,0.2   C19.3,71.8,20.2,72,20.5,71.3z M121.6,71.3c0.3,0.6,1.2,0.5,1.1,0.2C122.7,71.4,121.7,71.2,121.6,71.3z M123.7,71.9   c-0.3,0-0.6,0.4-0.7,0.6c0,0.4,0.2,0.6,0.2,0.9c0.2,0.3,0.7,0.2,1,0.3c0.1,0,0.1-0.1,0.2-0.1C124.2,73,124.4,72.1,123.7,71.9z    M134.9,68.8c-4.7-1.4-9.4-2.6-14.1-3.8c-1.4-0.4-2.8-0.7-4.3-1c-2.3-0.5-4.6-1.1-6.9-1.5c-0.2,0-0.5,0-0.6-0.2   c0.1-0.4-0.4-0.5-0.7-0.6c-0.7-0.2-1.4-0.4-2.1-0.6c-0.5-0.1-1-0.4-1.6-0.5c-0.7-0.1-1.2-0.1-1.6-0.7l0.1-0.1   c0.6,0.2,1.6,0.8,2.3,0.3c0.3-0.2,0.6-0.8,0.5-1.1c-0.1-0.3-0.5-0.3-0.7-0.4c-1-0.4-2-1-3-1.5c-2.1-1.1-4.2-2.1-6.3-3.2   c-1-0.5-2-1-3.1-1.3c-0.9-0.2-1.8,0.1-2.6,0.5c-0.7,0.4-0.7,1.5-1.3,1.4c-0.1-0.1-0.1-0.2-0.1-0.3c-0.2-0.4-0.9,0.6-1.5,0.9   c-1.3,0.6-3.5,3.1-4.4,4.2c-0.6,0.7-0.8,1.7-1,2.5l0.1,0.2c0.3,0.1,0.5,0,0.8-0.2c0.2,0.1,0.2,0.3,0.3,0.5c0.9,1.2,3.4,0.5,4.7,1   c0,0.1,0,0.2-0.1,0.2c-0.6,0.1-1.4,0-2-0.1c-1.4,0-2.8-0.1-4.2-0.1l-0.2,0.1c-0.1,0.3-0.9,2-1,2.1c-0.2,0.2-0.5,0.4-0.7,0.6   c-0.5,0.6-0.9,1.4-1.6,1.8c-0.2,0.1-0.6,0.2-0.7,0.5l0.1,0.1c2.1,0.2,2.3-2,3.7-2.5c0.1,0,0.1,0.1,0.1,0.2   c-0.3,0.3-0.7,0.8-0.9,1.3c-0.8,1.7-1.4,1.2-2.2,1.9l0.1,0.2c2.3-0.1,2.7-1.4,3.5-1.5c0.6-0.1,3.1,1,3.9,1.3   c0.4,0.1,0.8,0.2,1.2,0.2c0.1,0,0.3-0.1,0.5-0.1c0.3,0,0.4,0.6,1,0.2c0.4-0.2,0.4-0.8,0.5-1.2c0.1-0.5-0.5-0.9-0.5-1.1   c0.1-0.4,0.5,0.1,0.6-0.2c0.1-0.2-0.2-0.6-0.3-0.7c-0.3-0.4-1.2-1.1-1-1.6c0-0.1,0.2-0.2,0.2-0.2l2.8,0.3c0.1,0,0.5,1,0.5,1.1   c0,0.2-0.4,1.2-0.5,1.4c-0.2,0.6-0.6,1-0.6,1.6c0,0.8,0.5,1.5,0.9,2.2c0.4,0.7,1.2,0.4,1.8,0.6c0.3,0.1,0.5,0.3,0.8,0.4   c0.8,0.4,1.7,0.7,2.6,0.9c0.5,0.1,1.2,0,1.5-0.5c0.2-0.3-0.5-0.4-0.2-0.8c0.2-0.2,0.4-0.2,0.6-0.2c0.5,0.1,3,0.4,3.2,0.1   c0.1-0.1,0-0.2-0.1-0.3c-0.5-0.2-1.3-0.4-1.8-0.5c-0.7-0.2-1.4-0.2-2-0.4c-0.6-0.2-0.5,0.4-0.9,0.7c-0.6,0.4-2.3-0.4-2.5-1.1   c-0.2-0.7,0.4-1.5,0.9-2c0.3-0.4,0.8-0.4,1.1-0.7c0.2-0.2,0.1-0.5,0.1-0.7c0.3-0.4,1.6,0.2,2.1,0.1c0.6-0.2,0.1-0.9,0.6-1   c0.4,0.1,0.8,0.4,1.2,0.6c0.3,0.1,0.8,0.2,1,0.4c0.2,0.2,0,0.5,0,0.7c0.1,0.3,0.6,0.4,0.9,0.4c0.5,0.1,1,0,1.5,0.1   c0.5,0,1,0.2,1.4,0.2l1.6,0.2c0.4,0.2-0.1,0.5,0.3,1.2c-0.4-0.1-1.9-0.5-2.1,0c1.4,1.3,4.5,2.2,6.3,2.4c1.1,0.2,2.3,0.1,3.4,0   c0.7-0.1,0.8-0.7,1.3-0.8c0.5-0.1,1,0.8,1.4,1c0.3,0.2,0.7,0.4,1.1,0.6c0.6,0.4,1.2-0.3,1.7,0c0.6,0.3,1,2,1.9,1.8   c0.2-0.1,0.3-0.2,0.4-0.4c0.2-0.5-0.1-0.9-0.2-1.4c0.2-0.4,0.8,0.2,0.8-0.2c-0.1-0.1-0.2-0.2-0.3-0.2c-1.1-0.3-0.9-1.5-2.5-1.8   c-0.7-0.1-1.4-0.3-2.1-0.4c-0.2,0-0.7,0.1-0.7-0.2l0.1-0.1l1.3,0l0-0.2c-2-0.3-4-0.8-6-1.1c-0.2-0.1-0.3-0.6-0.3-0.7   c0.1-0.4,0.6,0.3,0.9-0.4c0.2-0.4-0.2-0.8,0.1-1c0.9,0.1,1.8,0.2,2.7,0.3c-5-1.2-10-2.2-15-3.4c-1.1-0.3-2.2-0.4-3.3-0.8l0-0.1   c4.4,0.6,8.8,1.7,13.2,2.2v-0.1c-2.5-0.5-4.9-1.1-7.3-1.5c-3.7-0.7-7.3-1.2-11-1.8c-2.4-0.4-4.8-0.8-7.2-1l-0.1,0.2   c0.2,0.2,0.4,0.3,0.6,0.4c0,0,0,0.1,0,0.2c-0.3,0-1.7,0.1-1.7-0.3c0.5-0.5,0.6-0.7,1.4-0.7c1.2,0.1,2.3,0.3,3.5,0.4   c6.6,0.9,13.3,1.7,19.9,2.9c7,1.2,13.9,2.4,20.8,4.1c1.1,0.3,8.4,2.3,8.7,2.2C137.8,69.7,135.3,69,134.9,68.8z M84.9,67.5   c-0.2,0.1-0.5,0.1-0.7,0c-0.3-0.2-0.3-0.5-0.4-0.8c0-0.1,0-0.2,0.1-0.2c0.3,0,0.7,0.1,0.9,0.3C84.8,67,85,67.2,84.9,67.5z    M108.4,70.1c0.7,0.2,1.5,0.2,2.2,0.4c0.1,0,0.3,0.2,0.3,0.3c0,0.1-0.2,0.1-0.2,0.1l-3-0.8l-0.3-0.2   C107.8,70.1,107.9,70,108.4,70.1z M91.9,66.9c0-0.1,0.2-0.3,0.3-0.3c0.2,0.1,0.4,0.1,0.5,0.3L92,68.4c-0.5,0.6-0.1,1.5,0,2.2   c0,0.1-0.1,0.1-0.2,0.2c-0.5-0.5-0.9-1.2-0.7-1.9L91.9,66.9z M86.3,58.5c-0.1,0-0.5-0.1-0.4-0.3c0.1,0,0.2-0.1,0.3-0.1l8.7,1.4   l0.4,0.2C95.2,59.8,89.2,58.9,86.3,58.5z M96.3,57c-1.5-0.3-3.1-0.7-4.6-1.1c-0.1,0-0.4-0.1-0.3-0.2c0.5-0.1,3.1,0.6,3.7,0.8   c0.3,0.1,0.4,0,0.7,0C96,56.6,96.2,56.7,96.3,57L96.3,57z M44.8,69.7c0.3,0,0.3-0.3,0.5-0.4c0.5,0.3,0.4,0.9,0.9,1.2   c0.2,0,0.6-0.1,0.8-0.2c0.2-0.1,0.4-0.3,0.4-0.5c-0.1-0.4-0.3-0.7-0.4-1.1c-0.2-0.6-0.9-0.2-1.4-0.2c-0.5,0.1-0.9-0.1-1.3-0.2   c-0.1,0-0.2,0.1-0.3,0.2c-0.1,0.2-0.1,0.4,0,0.6C44.2,69.5,44.5,69.7,44.8,69.7z M64.1,67.8c-0.7-0.5-1.1-1.2-1.6-1.8   c-0.2-0.2-0.5-0.4-0.7-0.6c-0.1-0.1-0.9-1.8-1-2.1l-0.2-0.1c-1.4,0.1-2.8,0.1-4.2,0.1c-0.6,0-1.4,0.1-2,0.1c-0.1,0-0.1-0.1-0.1-0.2   c1.3-0.5,3.8,0.3,4.7-1c0.1-0.2,0.1-0.5,0.3-0.5c0.2,0.1,0.5,0.2,0.8,0.2l0.1-0.2c-0.2-0.9-0.4-1.8-1-2.5C58.2,58,56,55.6,54.8,55   c-0.6-0.3-1.3-1.3-1.5-0.9c0,0.1-0.1,0.2-0.1,0.3c-0.6,0.1-0.5-0.9-1.3-1.4c-0.7-0.4-1.7-0.7-2.6-0.5c-1.1,0.2-2.1,0.8-3.1,1.3   c-2.1,1.1-4.2,2.1-6.3,3.2c-1,0.5-2,1-3,1.5c-0.2,0.1-0.6,0.1-0.7,0.4c-0.1,0.4,0.2,0.9,0.5,1.1c0.7,0.4,1.7-0.1,2.3-0.3l0.1,0.1   c-0.5,0.6-1,0.6-1.6,0.7c-0.5,0.1-1,0.4-1.6,0.5c-0.7,0.2-1.4,0.4-2.1,0.6c-0.3,0.1-0.8,0.2-0.7,0.6c-0.1,0.2-0.4,0.2-0.6,0.2   c-2.3,0.4-4.6,1-6.9,1.5c-1.4,0.3-2.8,0.6-4.3,1c-4.7,1.2-9.4,2.4-14.1,3.8c-0.5,0.1-2.9,0.8-3.1,1c0.3,0.1,7.7-1.9,8.7-2.2   c6.9-1.7,13.8-2.9,20.8-4.1c6.6-1.1,13.3-2,19.9-2.9c1.2-0.1,2.3-0.3,3.5-0.4c0.7-0.1,0.9,0.2,1.4,0.7c0,0.3-1.4,0.2-1.7,0.3   c0,0,0-0.1,0-0.2c0.2-0.1,0.4-0.2,0.6-0.4l-0.1-0.2c-2.4,0.2-4.9,0.7-7.2,1c-3.7,0.6-7.4,1.1-11,1.8c-2.5,0.4-4.9,1.1-7.3,1.5v0.1   c4.4-0.5,8.8-1.5,13.2-2.2l0,0.1c-1.1,0.3-2.2,0.5-3.3,0.8c-5,1.2-10,2.2-15,3.4c0.9-0.1,1.8-0.2,2.7-0.3c0.3,0.2-0.1,0.6,0.1,1   c0.3,0.7,0.9,0,0.9,0.4c0,0.1-0.2,0.6-0.3,0.7c-2,0.2-4,0.8-6,1.1l0,0.2l1.3,0l0.1,0.1c0,0.3-0.5,0.2-0.7,0.2   c-0.7,0.1-1.4,0.3-2.1,0.4c-1.6,0.3-1.4,1.5-2.5,1.8c-0.1,0-0.2,0.1-0.3,0.2c0,0.4,0.6-0.2,0.8,0.2c-0.1,0.5-0.4,0.9-0.2,1.4   c0.1,0.2,0.2,0.4,0.4,0.4c0.9,0.3,1.3-1.4,1.9-1.8c0.5-0.3,1.1,0.3,1.7,0c0.4-0.2,0.7-0.4,1.1-0.6c0.4-0.2,0.9-1.1,1.4-1   c0.4,0.1,0.6,0.7,1.3,0.8c1.1,0.1,2.3,0.1,3.4,0c1.8-0.3,4.9-1.2,6.3-2.4c-0.2-0.5-1.7-0.1-2.1,0c0.3-0.7-0.1-1.1,0.3-1.2l1.6-0.2   c0.5,0,0.9-0.2,1.4-0.2c0.5,0,1,0,1.5-0.1c0.3,0,0.8-0.1,0.9-0.4c0-0.2-0.2-0.5,0-0.7c0.2-0.3,0.7-0.3,1-0.4   c0.4-0.2,0.7-0.5,1.2-0.6c0.5,0.1,0.1,0.9,0.6,1c0.5,0.1,1.8-0.5,2.1-0.1c0,0.2-0.2,0.6,0.1,0.7c0.3,0.3,0.8,0.3,1.1,0.7   c0.4,0.5,1.1,1.3,0.9,2c-0.2,0.7-1.8,1.5-2.5,1.1c-0.4-0.3-0.4-0.8-0.9-0.7c-0.7,0.2-1.4,0.3-2,0.4c-0.6,0.2-1.3,0.3-1.8,0.5   c-0.1,0-0.2,0.2-0.1,0.3c0.3,0.3,2.8,0,3.2-0.1c0.2,0,0.4,0,0.6,0.2c0.3,0.4-0.4,0.5-0.2,0.8c0.3,0.4,1,0.6,1.5,0.5   c0.9-0.2,1.8-0.6,2.6-0.9c0.3-0.1,0.5-0.3,0.8-0.4c0.6-0.2,1.3,0.1,1.8-0.6c0.4-0.7,0.9-1.4,0.9-2.2c0-0.6-0.4-1.1-0.6-1.6   C51.4,67.2,51,66.2,51,66c0-0.1,0.4-1.1,0.5-1.1l2.8-0.3c0.1,0,0.2,0.1,0.2,0.2c0.1,0.6-0.7,1.2-1,1.6c-0.1,0.1-0.4,0.5-0.3,0.7   c0.1,0.3,0.6-0.2,0.6,0.2c0,0.3-0.5,0.7-0.5,1.1c0.1,0.4,0.1,1,0.5,1.2c0.7,0.3,0.7-0.2,1-0.2c0.1,0,0.3,0.1,0.5,0.1   c0.4,0,0.8-0.1,1.2-0.2c0.8-0.2,3.2-1.3,3.9-1.3c0.8,0.1,1.2,1.4,3.5,1.5l0.1-0.2c-0.8-0.8-1.4-0.3-2.2-1.9   c-0.2-0.4-0.6-0.9-0.9-1.3c0-0.1,0-0.2,0.1-0.2c1.4,0.5,1.6,2.7,3.7,2.5l0.1-0.1C64.7,68,64.3,67.9,64.1,67.8z M45.7,56.9   c0.2-0.2,0.4-0.3,0.6-0.5c0.3,0,0.4,0.1,0.7,0c0.6-0.2,3.2-0.9,3.7-0.8c0,0.2-0.2,0.2-0.3,0.2C48.9,56.3,47.3,56.7,45.7,56.9   L45.7,56.9z M55.8,58.5c-2.9,0.4-8.9,1.3-8.9,1.3l0.4-0.2l8.7-1.4c0.1,0,0.2,0,0.3,0.1C56.3,58.5,55.9,58.5,55.8,58.5z M34.3,70.2   l-3,0.8c-0.1,0-0.2,0-0.2-0.1c0-0.1,0.1-0.3,0.3-0.3c0.8-0.2,1.5-0.3,2.2-0.4c0.5-0.1,0.6-0.1,1-0.1L34.3,70.2z M50.2,70.7   c-0.1,0-0.2-0.1-0.2-0.2c0.2-0.6,0.5-1.5,0-2.2l-0.7-1.5c0.1-0.2,0.3-0.2,0.5-0.3c0.1,0,0.3,0.1,0.3,0.3l0.8,1.9   C51.2,69.6,50.7,70.3,50.2,70.7z M58,67.5c-0.2,0-0.6,0.1-0.7,0c-0.1-0.2,0.1-0.4,0.2-0.6c0.2-0.3,0.5-0.3,0.9-0.3   c0.1,0.1,0.1,0.1,0.1,0.2C58.3,67,58.2,67.3,58,67.5z"/>
</g>
<g>
	<path fill="#DADADA" d="M85,55.8c0.2-0.2,0.4-0.3,0.5-0.4c-0.1-0.1,0.1,0,0,0l0.1-0.1c-0.3-0.6-0.7-1.3-1.1-1.8   C84.8,54.2,84.9,55,85,55.8z"/>
</g>
<path fill="#001F47" d="M55.9,78.7l-1.3-1.9l-9.1,6.4l0.7,1l4-2.8l0.6,0.8l-3.3,2.3c-0.3,0.2-0.4,0.5-0.6,0.7l0,0l0.8,1.1l0.1-0.1  c0.1-0.3,0.2-0.5,0.5-0.7l3-2.1c0.4-0.3,0.6-0.6,0.6-0.9c0.1,0,0.2,0.1,0.4,0.1c0.2,0,0.4-0.1,0.6-0.2l2.9-2  c0.3-0.2,0.4-0.5,0.5-0.8C56.2,79.3,56.1,78.9,55.9,78.7z M54.9,79.4l-3,2.1l-0.6-0.9l0,0l3-2.1L54.9,79.4L54.9,79.4z"/>
<path fill="#001F47" d="M59.4,82.7c0-0.3-0.2-0.6-0.4-0.8l-1.8-1.5l-7.3,8.5l1.8,1.5c0.2,0.2,0.5,0.3,0.8,0.3c0.4,0,0.7-0.2,0.9-0.4  l2.2-2.5c0.3-0.4,0.5-0.7,0.3-1.1c0.1,0,0.1,0,0.2,0c0.3,0,0.5-0.1,0.7-0.4l2.3-2.6C59.4,83.3,59.5,83,59.4,82.7z M54.9,86.6  l-2.4,2.8l-0.8-0.7l2.5-2.8L54.9,86.6L54.9,86.6z M55.7,85.6L55,84.9l2.4-2.8l0.8,0.7L55.7,85.6z"/>
<style xmlns="http://www.w3.org/1999/xhtml" charset="utf-8" type="text/css" class="firebugResetStyles">/* See license.txt for terms of usage */
/** reset styling **/
.firebugResetStyles {
    z-index: 2147483646 !important;
    top: 0 !important;
    left: 0 !important;
    display: block !important;
    border: 0 none !important;
    margin: 0 !important;
    padding: 0 !important;
    outline: 0 !important;
    min-width: 0 !important;
    max-width: none !important;
    min-height: 0 !important;
    max-height: none !important;
    position: fixed !important;
    transform: rotate(0deg) !important;
    transform-origin: 50% 50% !important;
    border-radius: 0 !important;
    box-shadow: none !important;
    background: transparent none !important;
    pointer-events: none !important;
    white-space: normal !important;
}
style.firebugResetStyles {
    display: none !important;
}

.firebugBlockBackgroundColor {
    background-color: transparent !important;
}

.firebugResetStyles:before, .firebugResetStyles:after {
    content: "" !important;
}
/**actual styling to be modified by firebug theme**/
.firebugCanvas {
    display: none !important;
}

/* * * * * * * * * * * * * * * * * * * * * * * * * * * * * * * * * * * * * * * * * * * * * * * * */
.firebugLayoutBox {
    width: auto !important;
    position: static !important;
}

.firebugLayoutBoxOffset {
    opacity: 0.8 !important;
    position: fixed !important;
}

.firebugLayoutLine {
    opacity: 0.4 !important;
    background-color: #000000 !important;
}

.firebugLayoutLineLeft, .firebugLayoutLineRight {
    width: 1px !important;
    height: 100% !important;
}

.firebugLayoutLineTop, .firebugLayoutLineBottom {
    width: 100% !important;
    height: 1px !important;
}

.firebugLayoutLineTop {
    margin-top: -1px !important;
    border-top: 1px solid #999999 !important;
}

.firebugLayoutLineRight {
    border-right: 1px solid #999999 !important;
}

.firebugLayoutLineBottom {
    border-bottom: 1px solid #999999 !important;
}

.firebugLayoutLineLeft {
    margin-left: -1px !important;
    border-left: 1px solid #999999 !important;
}

/* * * * * * * * * * * * * * * * * * * * * * * * * * * * * * * * * * * * * * * * * * * * * * * * */
.firebugLayoutBoxParent {
    border-top: 0 none !important;
    border-right: 1px dashed #E00 !important;
    border-bottom: 1px dashed #E00 !important;
    border-left: 0 none !important;
    position: fixed !important;
    width: auto !important;
}

.firebugRuler{
    position: absolute !important;
}

.firebugRulerH {
    top: -15px !important;
    left: 0 !important;
    width: 100% !important;
    height: 14px !important;
    background: url("data:image/png,%89PNG%0D%0A%1A%0A%00%00%00%0DIHDR%00%00%13%88%00%00%00%0E%08%02%00%00%00L%25a%0A%00%00%00%04gAMA%00%00%D6%D8%D4OX2%00%00%00%19tEXtSoftware%00Adobe%20ImageReadyq%C9e%3C%00%00%04%F8IDATx%DA%EC%DD%D1n%E2%3A%00E%D1%80%F8%FF%EF%E2%AF2%95%D0D4%0E%C1%14%B0%8Fa-%E9%3E%CC%9C%87n%B9%81%A6W0%1C%A6i%9A%E7y%0As8%1CT%A9R%A5J%95*U%AAT%A9R%A5J%95*U%AAT%A9R%A5J%95*U%AAT%A9R%A5J%95*U%AAT%A9R%A5J%95*U%AAT%A9R%A5J%95*U%AAT%A9R%A5J%95*U%AATE9%FE%FCw%3E%9F%AF%2B%2F%BA%97%FDT%1D~K(%5C%9D%D5%EA%1B%5C%86%B5%A9%BDU%B5y%80%ED%AB*%03%FAV9%AB%E1%CEj%E7%82%EF%FB%18%BC%AEJ8%AB%FA'%D2%BEU9%D7U%ECc0%E1%A2r%5DynwVi%CFW%7F%BB%17%7Dy%EACU%CD%0E%F0%FA%3BX%FEbV%FEM%9B%2B%AD%BE%AA%E5%95v%AB%AA%E3E5%DCu%15rV9%07%B5%7F%B5w%FCm%BA%BE%AA%FBY%3D%14%F0%EE%C7%60%0EU%AAT%A9R%A5J%95*U%AAT%A9R%A5J%95*U%AAT%A9R%A5J%95*U%AAT%A9R%A5J%95*U%AAT%A9R%A5JU%88%D3%F5%1F%AE%DF%3B%1B%F2%3E%DAUCNa%F92%D02%AC%7Dm%F9%3A%D4%F2%8B6%AE*%BF%5C%C2Ym~9g5%D0Y%95%17%7C%C8c%B0%7C%18%26%9CU%CD%13i%F7%AA%90%B3Z%7D%95%B4%C7%60%E6E%B5%BC%05%B4%FBY%95U%9E%DB%FD%1C%FC%E0%9F%83%7F%BE%17%7DkjMU%E3%03%AC%7CWj%DF%83%9An%BCG%AE%F1%95%96yQ%0Dq%5Dy%00%3Et%B5'%FC6%5DS%95pV%95%01%81%FF'%07%00%00%00%00%00%00%00%00%00%F8x%C7%F0%BE%9COp%5D%C9%7C%AD%E7%E6%EBV%FB%1E%E0(%07%E5%AC%C6%3A%ABi%9C%8F%C6%0E9%AB%C0'%D2%8E%9F%F99%D0E%B5%99%14%F5%0D%CD%7F%24%C6%DEH%B8%E9rV%DFs%DB%D0%F7%00k%FE%1D%84%84%83J%B8%E3%BA%FB%EF%20%84%1C%D7%AD%B0%8E%D7U%C8Y%05%1E%D4t%EF%AD%95Q%BF8w%BF%E9%0A%BF%EB%03%00%00%00%00%00%00%00%00%00%B8vJ%8E%BB%F5%B1u%8Cx%80%E1o%5E%CA9%AB%CB%CB%8E%03%DF%1D%B7T%25%9C%D5(%EFJM8%AB%CC'%D2%B2*%A4s%E7c6%FB%3E%FA%A2%1E%80~%0E%3E%DA%10x%5D%95Uig%15u%15%ED%7C%14%B6%87%A1%3B%FCo8%A8%D8o%D3%ADO%01%EDx%83%1A~%1B%9FpP%A3%DC%C6'%9C%95gK%00%00%00%00%00%00%00%00%00%20%D9%C9%11%D0%C0%40%AF%3F%EE%EE%92%94%D6%16X%B5%BCMH%15%2F%BF%D4%A7%C87%F1%8E%F2%81%AE%AAvzr%DA2%ABV%17%7C%E63%83%E7I%DC%C6%0Bs%1B%EF6%1E%00%00%00%00%00%00%00%00%00%80cr%9CW%FF%7F%C6%01%0E%F1%CE%A5%84%B3%CA%BC%E0%CB%AA%84%CE%F9%BF)%EC%13%08WU%AE%AB%B1%AE%2BO%EC%8E%CBYe%FE%8CN%ABr%5Dy%60~%CFA%0D%F4%AE%D4%BE%C75%CA%EDVB%EA(%B7%F1%09g%E5%D9%12%00%00%00%00%00%00%00%00%00H%F6%EB%13S%E7y%5E%5E%FB%98%F0%22%D1%B2'%A7%F0%92%B1%BC%24z3%AC%7Dm%60%D5%92%B4%7CEUO%5E%F0%AA*%3BU%B9%AE%3E%A0j%94%07%A0%C7%A0%AB%FD%B5%3F%A0%F7%03T%3Dy%D7%F7%D6%D4%C0%AAU%D2%E6%DFt%3F%A8%CC%AA%F2%86%B9%D7%F5%1F%18%E6%01%F8%CC%D5%9E%F0%F3z%88%AA%90%EF%20%00%00%00%00%00%00%00%00%00%C0%A6%D3%EA%CFi%AFb%2C%7BB%0A%2B%C3%1A%D7%06V%D5%07%A8r%5D%3D%D9%A6%CAu%F5%25%CF%A2%99%97zNX%60%95%AB%5DUZ%D5%FBR%03%AB%1C%D4k%9F%3F%BB%5C%FF%81a%AE%AB'%7F%F3%EA%FE%F3z%94%AA%D8%DF%5B%01%00%00%00%00%00%00%00%00%00%8E%FB%F3%F2%B1%1B%8DWU%AAT%A9R%A5J%95*U%AAT%A9R%A5J%95*U%AAT%A9R%A5J%95*U%AAT%A9R%A5J%95*U%AAT%A9R%A5J%95*U%AAT%A9R%A5J%95*U%AAT%A9R%A5J%95*UiU%C7%BBe%E7%F3%B9%CB%AAJ%95*U%AAT%A9R%A5J%95*U%AAT%A9R%A5J%95*U%AAT%A9R%A5J%95*U%AAT%A9R%A5J%95*U%AAT%A9R%A5J%95*U%AAT%A9R%A5J%95*U%AAT%A9R%A5*%AAj%FD%C6%D4%5Eo%90%B5Z%ADV%AB%D5j%B5Z%ADV%AB%D5j%B5Z%ADV%AB%D5j%B5Z%ADV%AB%D5j%B5Z%ADV%AB%D5j%B5Z%ADV%AB%D5j%B5Z%ADV%AB%D5j%B5%86%AF%1B%9F%98%DA%EBm%BBV%AB%D5j%B5Z%ADV%AB%D5j%B5Z%ADV%AB%D5j%B5Z%ADV%AB%D5j%B5Z%ADV%AB%D5j%B5Z%ADV%AB%D5j%B5Z%ADV%AB%D5j%B5Z%AD%D6%E4%F58%01%00%00%00%00%00%00%00%00%00%00%00%00%00%40%85%7F%02%0C%008%C2%D0H%16j%8FX%00%00%00%00IEND%AEB%60%82") repeat-x !important;
    border-top: 1px solid #BBBBBB !important;
    border-right: 1px dashed #BBBBBB !important;
    border-bottom: 1px solid #000000 !important;
}

.firebugRulerV {
    top: 0 !important;
    left: -15px !important;
    width: 14px !important;
    height: 100% !important;
    background: url("data:image/png,%89PNG%0D%0A%1A%0A%00%00%00%0DIHDR%00%00%00%0E%00%00%13%88%08%02%00%00%00%0E%F5%CB%10%00%00%00%04gAMA%00%00%D6%D8%D4OX2%00%00%00%19tEXtSoftware%00Adobe%20ImageReadyq%C9e%3C%00%00%06~IDATx%DA%EC%DD%D1v%A20%14%40Qt%F1%FF%FF%E4%97%D9%07%3BT%19%92%DC%40(%90%EEy%9A5%CB%B6%E8%F6%9Ac%A4%CC0%84%FF%DC%9E%CF%E7%E3%F1%88%DE4%F8%5D%C7%9F%2F%BA%DD%5E%7FI%7D%F18%DDn%BA%C5%FB%DF%97%BFk%F2%10%FF%FD%B4%F2M%A7%FB%FD%FD%B3%22%07p%8F%3F%AE%E3%F4S%8A%8F%40%EEq%9D%BE8D%F0%0EY%A1Uq%B7%EA%1F%81%88V%E8X%3F%B4%CEy%B7h%D1%A2E%EBohU%FC%D9%AF2fO%8BBeD%BE%F7X%0C%97%A4%D6b7%2Ck%A5%12%E3%9B%60v%B7r%C7%1AI%8C%BD%2B%23r%00c0%B2v%9B%AD%CA%26%0C%1Ek%05A%FD%93%D0%2B%A1u%8B%16-%95q%5Ce%DCSO%8E%E4M%23%8B%F7%C2%FE%40%BB%BD%8C%FC%8A%B5V%EBu%40%F9%3B%A72%FA%AE%8C%D4%01%CC%B5%DA%13%9CB%AB%E2I%18%24%B0n%A9%0CZ*Ce%9C%A22%8E%D8NJ%1E%EB%FF%8F%AE%CAP%19*%C3%BAEKe%AC%D1%AAX%8C*%DEH%8F%C5W%A1e%AD%D4%B7%5C%5B%19%C5%DB%0D%EF%9F%19%1D%7B%5E%86%BD%0C%95%A12%AC%5B*%83%96%CAP%19%F62T%86%CAP%19*%83%96%CA%B8Xe%BC%FE)T%19%A1%17xg%7F%DA%CBP%19*%C3%BA%A52T%86%CAP%19%F62T%86%CA%B0n%A9%0CZ%1DV%C6%3D%F3%FCH%DE%B4%B8~%7F%5CZc%F1%D6%1F%AF%84%F9%0F6%E6%EBVt9%0E~%BEr%AF%23%B0%97%A12T%86%CAP%19%B4T%86%CA%B8Re%D8%CBP%19*%C3%BA%A52huX%19%AE%CA%E5%BC%0C%7B%19*CeX%B7h%A9%0C%95%E1%BC%0C%7B%19*CeX%B7T%06%AD%CB%5E%95%2B%BF.%8F%C5%97%D5%E4%7B%EE%82%D6%FB%CF-%9C%FD%B9%CF%3By%7B%19%F62T%86%CA%B0n%D1R%19*%A3%D3%CA%B0%97%A12T%86uKe%D0%EA%B02*%3F1%99%5DB%2B%A4%B5%F8%3A%7C%BA%2B%8Co%7D%5C%EDe%A8%0C%95a%DDR%19%B4T%C66%82fA%B2%ED%DA%9FC%FC%17GZ%06%C9%E1%B3%E5%2C%1A%9FoiB%EB%96%CA%A0%D5qe4%7B%7D%FD%85%F7%5B%ED_%E0s%07%F0k%951%ECr%0D%B5C%D7-g%D1%A8%0C%EB%96%CA%A0%A52T%C6)*%C3%5E%86%CAP%19%D6-%95A%EB*%95q%F8%BB%E3%F9%AB%F6%E21%ACZ%B7%22%B7%9B%3F%02%85%CB%A2%5B%B7%BA%5E%B7%9C%97%E1%BC%0C%EB%16-%95%A12z%AC%0C%BFc%A22T%86uKe%D0%EA%B02V%DD%AD%8A%2B%8CWhe%5E%AF%CF%F5%3B%26%CE%CBh%5C%19%CE%CB%B0%F3%A4%095%A1%CAP%19*Ce%A8%0C%3BO*Ce%A8%0C%95%A12%3A%AD%8C%0A%82%7B%F0v%1F%2FD%A9%5B%9F%EE%EA%26%AF%03%CA%DF9%7B%19*Ce%A8%0C%95%A12T%86%CA%B8Ze%D8%CBP%19*Ce%A8%0C%95%D1ae%EC%F7%89I%E1%B4%D7M%D7P%8BjU%5C%BB%3E%F2%20%D8%CBP%19*Ce%A8%0C%95%A12T%C6%D5*%C3%5E%86%CAP%19*Ce%B4O%07%7B%F0W%7Bw%1C%7C%1A%8C%B3%3B%D1%EE%AA%5C%D6-%EBV%83%80%5E%D0%CA%10%5CU%2BD%E07YU%86%CAP%19*%E3%9A%95%91%D9%A0%C8%AD%5B%EDv%9E%82%FFKOee%E4%8FUe%A8%0C%95%A12T%C6%1F%A9%8C%C8%3D%5B%A5%15%FD%14%22r%E7B%9F%17l%F8%BF%ED%EAf%2B%7F%CF%ECe%D8%CBP%19*Ce%A8%0C%95%E1%93~%7B%19%F62T%86%CAP%19*Ce%A8%0C%E7%13%DA%CBP%19*Ce%A8%0CZf%8B%16-Z%B4h%D1R%19f%8B%16-Z%B4h%D1R%19%B4%CC%16-Z%B4h%D1R%19%B4%CC%16-Z%B4h%D1%A2%A52%CC%16-Z%B4h%D1%A2%A52h%99-Z%B4h%D1%A2%A52h%99-Z%B4h%D1%A2EKe%98-Z%B4h%D1%A2EKe%D02%5B%B4h%D1%A2EKe%D02%5B%B4h%D1%A2E%8B%96%CA0%5B%B4h%D1%A2E%8B%96%CA%A0e%B6h%D1%A2E%8B%96%CA%A0e%B6h%D1%A2E%8B%16-%95a%B6h%D1%A2E%8B%16-%95A%CBl%D1%A2E%8B%16-%95A%CBl%D1%A2E%8B%16-Z*%C3l%D1%A2E%8B%16-Z*%83%96%D9%A2E%8B%16-Z*%83%96%D9%A2E%8B%16-Z%B4T%86%D9%A2E%8B%16-Z%B4T%06-%B3E%8B%16-Z%B4T%06-%B3E%8B%16-Z%B4h%A9%0C%B3E%8B%16-Z%B4h%A9%0CZf%8B%16-Z%B4h%A9%0CZf%8B%16-Z%B4h%D1R%19f%8B%16-Z%B4h%D1R%19%B4%CC%16-Z%B4h%D1R%19%B4%CC%16-Z%B4h%D1%A2%A52%CC%16-Z%B4h%D1%A2%A52h%99-Z%B4h%D1%A2%A52h%99-Z%B4h%D1%A2EKe%98-Z%B4h%D1%A2EKe%D02%5B%B4h%D1%A2EKe%D02%5B%B4h%D1%A2E%8B%96%CA0%5B%B4h%D1%A2E%8B%96%CA%A0e%B6h%D1%A2E%8B%96%CA%A0e%B6h%D1%A2E%8B%16-%95a%B6h%D1%A2E%8B%16-%95A%CBl%D1%A2E%8B%16-%95A%CBl%D1%A2E%8B%16-Z*%C3l%D1%A2E%8B%16-Z*%83%96%D9%A2E%8B%16-Z*%83%96%D9%A2E%8B%16-Z%B4T%86%D9%A2E%8B%16-Z%B4T%06-%B3E%8B%16-Z%B4T%06-%B3E%8B%16-Z%B4h%A9%0C%B3E%8B%16-Z%B4h%A9%0CZf%8B%16-Z%B4h%A9%0CZf%8B%16-Z%B4h%D1R%19f%8B%16-Z%B4h%D1R%19%B4%CC%16-Z%B4h%D1R%19%B4%CC%16-Z%B4h%D1%A2%A52%CC%16-Z%B4h%D1%A2%A52h%99-Z%B4h%D1%A2%A52h%99-Z%B4h%D1%A2EKe%98-Z%B4h%D1%A2EKe%D02%5B%B4h%D1%A2EKe%D02%5B%B4h%D1%A2E%8B%96%CA0%5B%B4h%D1%A2E%8B%96%CA%A0e%B6h%D1%A2E%8B%96%CA%A0e%B6h%D1%A2E%8B%16-%95a%B6h%D1%A2E%8B%16-%95A%CBl%D1%A2E%8B%16-%95A%CBl%D1%A2E%8B%16-Z*%C3l%D1%A2E%8B%16-Z*%83%96%D9%A2E%8B%16-Z*%83%96%D9%A2E%8B%16-Z%B4T%86%D9%A2E%8B%16-Z%B4T%06-%B3E%8B%16-Z%B4%AE%A4%F5%25%C0%00%DE%BF%5C'%0F%DA%B8q%00%00%00%00IEND%AEB%60%82") repeat-y !important;
    border-left: 1px solid #BBBBBB !important;
    border-right: 1px solid #000000 !important;
    border-bottom: 1px dashed #BBBBBB !important;
}

.overflowRulerX &gt; .firebugRulerV {
    left: 0 !important;
}

.overflowRulerY &gt; .firebugRulerH {
    top: 0 !important;
}

/* * * * * * * * * * * * * * * * * * * * * * * * * * * * * * * * * * * * * * * * * * * * * * * * */
.fbProxyElement {
    position: fixed !important;
    pointer-events: auto !important;
}
</style><div xmlns="http://www.w3.org/1999/xhtml" class="firebugResetStyles firebugBlockBackgroundColor firebugLayoutBox firebugLayoutBoxOffset" style="left: 810.217px ! important; top: 142.267px ! important;"><div class="firebugResetStyles firebugLayoutBox" style="padding: 0px ! important; background-color: rgb(237, 255, 100) ! important;"><div class="firebugResetStyles firebugLayoutBox" style="padding: 0px ! important; background-color: rgb(68, 68, 68) ! important;"><div class="firebugResetStyles firebugLayoutBox" style="padding: 0px ! important; background-color: SlateBlue ! important;"><div class="firebugResetStyles firebugLayoutBox" style="width: 227.433px ! important; height: 61.5667px ! important; background-color: SkyBlue ! important;"/></div></div></div></div></svg>